<?xml version="1.0" encoding="iso-8859-1"?>
<!-- Generator: Adobe Illustrator 19.0.0, SVG Export Plug-In . SVG Version: 6.00 Build 0)  -->
<svg version="1.1" id="Layer_1" xmlns="http://www.w3.org/2000/svg" xmlns:xlink="http://www.w3.org/1999/xlink" x="0px" y="0px"
	 viewBox="0 0 512 512" style="enable-background:new 0 0 512 512;" xml:space="preserve">
<polygon style="fill:#BAFFA0;" points="158.897,273.655 88.276,264.828 61.793,326.621 194.207,494.345 247.172,512 "/>
<polygon style="fill:#E2FFCB;" points="88.276,264.828 123.586,308.966 150.069,291.31 158.897,273.655 "/>
<g>
	<polygon style="fill:#99DCA3;" points="123.586,308.966 220.69,503.172 194.207,494.345 61.793,326.621 	"/>
	<polygon style="fill:#99DCA3;" points="370.759,476.69 450.207,335.448 432.552,273.655 353.103,317.793 344.276,476.69 	"/>
</g>
<polygon style="fill:#BAFFA0;" points="397.241,317.793 406.069,361.931 432.552,273.655 397.241,291.31 397.241,308.966 "/>
<polygon style="fill:#E2FFCB;" points="432.552,273.655 450.207,335.448 406.069,361.931 "/>
<polygon style="fill:#BAFFA0;" points="406.069,361.931 353.103,476.69 370.759,476.69 450.207,335.448 "/>
<polygon style="fill:#3DB9C9;" points="211.862,52.966 247.172,476.69 282.483,414.897 273.655,97.103 "/>
<polygon style="fill:#00C39F;" points="344.276,494.345 432.552,211.862 388.414,123.586 317.793,141.241 247.172,512 "/>
<polygon style="fill:#67EBBC;" points="314.489,158.585 370.759,229.517 388.414,123.586 317.793,141.241 "/>
<polygon style="fill:#64CDF6;" points="247.172,512 282.483,238.345 344.276,185.379 370.759,256 308.966,512 "/>
<polygon style="fill:#2CA6DE;" points="282.483,238.345 317.793,317.793 273.655,512 247.172,512 "/>
<polygon style="fill:#67EBBC;" points="370.759,229.517 344.276,494.345 432.552,211.862 "/>
<polygon style="fill:#B8F9D0;" points="432.552,211.862 388.414,123.586 370.759,229.517 "/>
<polygon style="fill:#A0EBFA;" points="317.793,317.793 344.276,185.379 370.759,256 "/>
<g>
	<polygon style="fill:#53DCDC;" points="211.862,52.966 273.655,97.103 256,0 	"/>
	<polygon style="fill:#53DCDC;" points="326.621,61.793 273.655,97.103 264.828,441.379 317.793,220.69 	"/>
</g>
<polygon style="fill:#B0F9F9;" points="256,0 273.655,97.103 326.621,61.793 "/>
<polygon style="fill:#64CDF6;" points="273.655,512 211.862,158.897 141.241,105.931 114.759,220.69 220.69,512 "/>
<polygon style="fill:#A0EBFA;" points="141.241,105.931 158.897,220.69 211.862,158.897 "/>
<polygon style="fill:#2CA6DE;" points="220.69,512 247.172,512 158.897,220.69 114.759,220.69 "/>
<g>
</g>
<g>
</g>
<g>
</g>
<g>
</g>
<g>
</g>
<g>
</g>
<g>
</g>
<g>
</g>
<g>
</g>
<g>
</g>
<g>
</g>
<g>
</g>
<g>
</g>
<g>
</g>
<g>
</g>
</svg>
