<?xml version="1.0" encoding="iso-8859-1"?>
<!-- Generator: Adobe Illustrator 18.0.0, SVG Export Plug-In . SVG Version: 6.00 Build 0)  -->
<!DOCTYPE svg PUBLIC "-//W3C//DTD SVG 1.1//EN" "http://www.w3.org/Graphics/SVG/1.1/DTD/svg11.dtd">
<svg version="1.1" id="Capa_1" xmlns="http://www.w3.org/2000/svg" xmlns:xlink="http://www.w3.org/1999/xlink" x="0px" y="0px"
	 viewBox="0 0 423.724 423.724" style="enable-background:new 0 0 423.724 423.724;" xml:space="preserve">
<g>
	<path style="fill:#EF7954;" d="M380.176,224.312h-8.135v-11.756h8.135c17.53,0,31.792-14.262,31.792-31.792
		s-14.262-31.792-31.792-31.792H254.341c-18.267,0-33.129-14.862-33.129-33.129c0-18.267,14.862-33.129,33.129-33.129h9.617
		c12.669,0,22.976-10.307,22.976-22.976h11.756c0,19.151-15.581,34.732-34.732,34.732h-9.617c-11.785,0-21.373,9.588-21.373,21.373
		s9.588,21.373,21.373,21.373h125.835c24.013,0,43.548,19.536,43.548,43.548S404.189,224.312,380.176,224.312z"/>
	<rect x="301.299" y="239.273" style="fill:#B3B3B3;" width="28.561" height="48.815"/>
	<rect x="301.299" y="267.064" style="fill:#999999;" width="14.174" height="45.947"/>
	<path style="fill:#CCCCCC;" d="M355.13,313.01c0,4.072-1.208,7.919-3.612,11.318c-3.773,5.365-10.516,9.597-20.135,11.841
		c-2.073,0.481-4.275,0.876-6.615,1.165c-3.163,0.395-6.573,0.598-10.228,0.598c-5.995,0-11.499-2.116-15.796-5.643
		c-5.568-4.574-9.116-11.51-9.116-19.28c0-0.192,0-0.385,0.011-0.566c0.011-0.705,0.053-1.411,0.128-2.095
		c1.336-12.515,11.905-22.261,24.773-22.261c3.762,0,7.235,0.192,10.431,0.556c3.537,0.395,6.744,1.015,9.608,1.806
		c13.744,3.815,20.006,11.852,20.519,21.278C355.119,312.155,355.13,312.583,355.13,313.01z"/>
	<polygon style="fill:#999999;" points="243.522,345.958 312.405,295.911 381.288,345.958 375.191,419.54 337.023,412.926 
		356.126,354.133 312.405,322.368 268.683,354.133 285.242,419.54 267.43,419.54 	"/>
	<polygon style="fill:#CCCCCC;" points="261.333,345.958 330.216,295.911 399.099,345.958 375.191,419.54 354.835,412.926 
		373.938,354.133 330.216,322.368 286.495,354.133 305.598,412.926 285.242,419.54 	"/>
	<path style="fill:#808080;" d="M88.279,267.064h168.086c24.852,0,44.998-20.146,44.998-44.998v-6.184
		c0-24.852-20.146-44.998-44.998-44.998H88.279c-24.852,0-44.998,20.146-44.998,44.998v6.184
		C43.281,246.917,63.427,267.064,88.279,267.064z"/>
	<path style="fill:#999999;" d="M170.713,267.064h168.086c24.852,0,44.998-20.146,44.998-44.998v-6.184
		c0-24.852-20.146-44.998-44.998-44.998H170.713c-24.852,0-44.998,20.146-44.998,44.998v6.184
		C125.715,246.917,145.861,267.064,170.713,267.064z"/>
	<path style="fill:#CCCCCC;" d="M173.804,239.277c-11.194,0-20.302-9.108-20.302-20.303s9.108-20.303,20.302-20.303h161.903
		c11.194,0,20.302,9.108,20.302,20.303s-9.108,20.303-20.302,20.303H173.804z"/>
	<rect x="72.135" y="25.274" style="fill:#CCCCCC;" width="286.122" height="34.464"/>
	<rect x="0" y="25.274" style="fill:#B3B3B3;" width="72.135" height="34.464"/>
	<rect x="30.727" y="59.738" style="fill:#999999;" width="107.131" height="166.711"/>
	<path style="fill:#B3B3B3;" d="M209.992,4.184h-72.135v222.265h45.602c14.654,0,26.533-11.879,26.533-26.533V4.184z"/>
	<path style="fill:#74A3AF;" d="M156.03,312.477h-37.949c-25.041,0-45.413-20.372-45.413-45.413v-40.615h11.756v40.615
		c0,18.559,15.099,33.657,33.657,33.657h37.949c18.558,0,33.657-15.098,33.657-33.657h11.756
		C201.443,292.105,181.071,312.477,156.03,312.477z"/>
	<rect x="105.797" y="4.184" style="fill:#999999;" width="32.06" height="21.089"/>
	<rect x="30.727" y="4.184" style="fill:#999999;" width="32.06" height="21.089"/>
	<rect x="62.786" y="4.184" style="fill:#B3B3B3;" width="32.06" height="21.089"/>
	<rect x="123.892" y="4.184" style="fill:#999999;" width="13.965" height="69.281"/>
	<path style="fill:#808080;" d="M194.427,191.733c0,9.052-7.331,16.394-16.383,16.394c-1.475,0-2.918-0.192-4.275-0.566
		c-6.979-1.881-12.119-8.261-12.119-15.828c0-7.566,5.14-13.936,12.119-15.817c1.357-0.374,2.8-0.566,4.275-0.566
		C187.096,175.349,194.427,182.681,194.427,191.733z"/>
	<path style="fill:#999999;" d="M185.878,191.733c0,7.567-5.13,13.947-12.109,15.828c-6.979-1.881-12.119-8.261-12.119-15.828
		c0-7.566,5.14-13.936,12.119-15.817C180.748,177.797,185.878,184.166,185.878,191.733z"/>
	<rect x="45.818" y="74.178" style="fill:#808080;" width="76.947" height="123.971"/>
	<rect x="45.818" y="74.178" style="fill:#B3B3B3;" width="18.938" height="123.971"/>
	<rect x="64.757" y="91.633" style="fill:#EF7954;" width="58.009" height="10.687"/>
	<rect x="64.757" y="158.606" style="fill:#EF7954;" width="58.009" height="10.687"/>
	<path style="fill:#74A3AF;" d="M85.062,198.148H74.375v-49.873c0-11.589,9.428-21.018,21.017-21.018
		c5.696,0,10.331-4.634,10.331-10.331V74.177h10.687v42.749c0,11.589-9.428,21.018-21.018,21.018c-5.696,0-10.33,4.634-10.33,10.331
		V198.148z"/>
	<path style="fill:#CCCCCC;" d="M336.577,288.911l-1.998,1.539l-14.406,11.104l-14.876,11.457h-15.667l0.032-0.577l0.107-2.084
		c1.336-12.515,11.905-22.261,24.773-22.261c3.762,0,13.883,0,15.678,0C332.42,288.088,334.546,288.377,336.577,288.911z"/>
	<path style="fill:#808080;" d="M355.13,313.01c0,4.264-1.069,8.283-2.96,11.799c-3.708,6.893-10.57,11.841-18.66,12.899
		c-1.069,0.15-2.17,0.224-3.292,0.224c-1.87,0-3.698-0.203-5.451-0.598c-6.989-1.56-12.867-6.049-16.277-12.119
		c-2.041-3.602-3.195-7.77-3.195-12.205c0-6.295,2.34-12.044,6.199-16.437c3.452-3.944,8.154-6.786,13.476-7.93
		c1.689-0.363,3.452-0.556,5.247-0.556c2.201,0,4.328,0.289,6.359,0.823c10.281,2.704,17.965,11.82,18.521,22.817
		C355.119,312.155,355.13,312.583,355.13,313.01z"/>
	<path style="fill:#CCCCCC;" d="M340.264,313.01c0,5.547-4.499,10.046-10.046,10.046c-1.614,0-3.131-0.374-4.478-1.058
		c-3.302-1.646-5.568-5.055-5.568-8.988s2.266-7.342,5.568-8.988c1.347-0.684,2.864-1.058,4.478-1.058
		C335.765,302.965,340.264,307.464,340.264,313.01z"/>
	<path style="fill:#999999;" d="M331.298,313.01c0,3.933-2.266,7.342-5.557,8.988c-3.302-1.646-5.568-5.055-5.568-8.988
		s2.266-7.342,5.568-8.988C329.032,305.668,331.298,309.078,331.298,313.01z"/>
</g>
<g>
</g>
<g>
</g>
<g>
</g>
<g>
</g>
<g>
</g>
<g>
</g>
<g>
</g>
<g>
</g>
<g>
</g>
<g>
</g>
<g>
</g>
<g>
</g>
<g>
</g>
<g>
</g>
<g>
</g>
</svg>
