<?xml version="1.0" encoding="iso-8859-1"?>
<!-- Generator: Adobe Illustrator 19.0.0, SVG Export Plug-In . SVG Version: 6.00 Build 0)  -->
<svg version="1.1" id="Layer_1" xmlns="http://www.w3.org/2000/svg" xmlns:xlink="http://www.w3.org/1999/xlink" x="0px" y="0px"
	 viewBox="0 0 512.001 512.001" style="enable-background:new 0 0 512.001 512.001;" xml:space="preserve">
<rect x="251.695" y="288.979" transform="matrix(-0.7071 -0.7071 0.7071 -0.7071 304.9623 736.2364)" style="fill:#134A79;" width="106.531" height="31.959"/>
<rect x="153.77" y="191.051" transform="matrix(-0.7071 -0.7071 0.7071 -0.7071 207.0402 499.8196)" style="fill:#1D71B8;" width="106.531" height="31.959"/>
<rect x="151.513" y="309.891" transform="matrix(-0.7071 -0.7071 0.7071 -0.7071 42.32 706.5562)" style="fill:#134A79;" width="31.959" height="69.245"/>
<rect x="327.782" y="133.616" transform="matrix(-0.7071 -0.7071 0.7071 -0.7071 467.8755 530.277)" style="fill:#092339;" width="31.959" height="69.245"/>
<polygon style="fill:#77AAD4;" points="251.481,185.19 139.24,297.431 176.905,335.097 318.202,236.845 "/>
<g>
	<polygon style="fill:#1D71B8;" points="334.343,177.657 296.679,139.992 251.481,185.19 310.669,244.378 	"/>
	<polygon style="fill:#1D71B8;" points="176.905,335.097 214.569,372.761 326.81,260.52 315.512,234.154 289.146,222.855 	"/>
</g>
<rect x="298.617" y="192.446" transform="matrix(-0.7071 0.7071 -0.7071 -0.7071 719.2416 140.2372)" style="fill:#134A79;" width="63.919" height="53.266"/>
<rect x="285.02" y="343.748" transform="matrix(-0.7071 -0.7071 0.7071 -0.7071 391.7016 945.6224)" style="fill:#092339;" width="213.35" height="95.878"/>
<rect x="13.632" y="72.364" transform="matrix(0.7071 0.7071 -0.7071 0.7071 120.3045 -49.8341)" style="fill:#134A79;" width="213.35" height="95.878"/>
<g>
	<path style="fill:#F9B233;" d="M368.242,31.96L368.241,0c38.454-0.001,74.571,14.938,101.696,42.063
		C497.061,69.187,512,105.302,512,143.755h-31.96c-0.001-29.915-11.615-58.005-32.703-79.093
		C426.25,43.573,398.159,31.96,368.242,31.96z"/>
	<path style="fill:#F9B233;" d="M368.243,95.818v-31.96c21.343,0,41.406,8.312,56.497,23.402
		c15.091,15.091,23.402,35.155,23.402,56.495h-31.96c0-12.803-4.987-24.842-14.042-33.896
		C393.086,100.806,381.047,95.818,368.243,95.818z"/>
</g>
<g>
	<path style="fill:#FAC15C;" d="M42.064,469.937C14.939,442.81,0,406.695,0.001,368.241l31.96,0.001
		c0,29.916,11.613,58.007,32.702,79.096c21.088,21.088,49.177,32.702,79.093,32.703v31.96
		C105.303,511.999,69.189,497.061,42.064,469.937z"/>
	<path style="fill:#FAC15C;" d="M87.262,424.738c-15.09-15.09-23.402-35.155-23.402-56.497h31.96
		c0,12.805,4.987,24.843,14.042,33.898c9.054,9.054,21.093,14.041,33.896,14.042v31.96
		C122.417,448.141,102.353,439.83,87.262,424.738z"/>
</g>
<g>
</g>
<g>
</g>
<g>
</g>
<g>
</g>
<g>
</g>
<g>
</g>
<g>
</g>
<g>
</g>
<g>
</g>
<g>
</g>
<g>
</g>
<g>
</g>
<g>
</g>
<g>
</g>
<g>
</g>
</svg>
