<?xml version="1.0" encoding="iso-8859-1"?>
<!-- Generator: Adobe Illustrator 18.0.0, SVG Export Plug-In . SVG Version: 6.00 Build 0)  -->
<!DOCTYPE svg PUBLIC "-//W3C//DTD SVG 1.1//EN" "http://www.w3.org/Graphics/SVG/1.1/DTD/svg11.dtd">
<svg version="1.1" id="Capa_1" xmlns="http://www.w3.org/2000/svg" xmlns:xlink="http://www.w3.org/1999/xlink" x="0px" y="0px"
	 viewBox="0 0 60 60" style="enable-background:new 0 0 60 60;" xml:space="preserve">
<g>
	<path style="fill:#556080;" d="M44,53c0-0.55,0.45-1,1-1l0,0c0.55,0,1,0.45,1,1l0,0c0,0.55-0.45,1-1,1l0,0C44.45,54,44,53.55,44,53
		z M40,53c0-0.55,0.45-1,1-1l0,0c0.55,0,1,0.45,1,1l0,0c0,0.55-0.45,1-1,1l0,0C40.45,54,40,53.55,40,53z M36,53c0-0.55,0.439-1,1-1
		l0,0c0.55,0,1,0.45,1,1l0,0c0,0.55-0.45,1-1,1l0,0C36.439,54,36,53.55,36,53z M32,53c0-0.55,0.45-1,1-1l0,0c0.55,0,1,0.45,1,1l0,0
		c0,0.55-0.45,1-1,1l0,0C32.45,54,32,53.55,32,53z M28,53c0-0.55,0.45-1,1-1l0,0c0.55,0,1,0.45,1,1l0,0c0,0.55-0.45,1-1,1l0,0
		C28.45,54,28,53.55,28,53z M24,53c0-0.55,0.45-1,1-1l0,0c0.55,0,1,0.45,1,1l0,0c0,0.55-0.45,1-1,1l0,0C24.45,54,24,53.55,24,53z
		 M20,53c0-0.55,0.45-1,1-1l0,0c0.55,0,1,0.45,1,1l0,0c0,0.55-0.45,1-1,1l0,0C20.45,54,20,53.55,20,53z M16,53c0-0.55,0.45-1,1-1
		l0,0c0.55,0,1,0.45,1,1l0,0c0,0.55-0.45,1-1,1l0,0C16.45,54,16,53.55,16,53z M12,53c0-0.55,0.45-1,1-1l0,0c0.55,0,1,0.45,1,1l0,0
		c0,0.55-0.45,1-1,1l0,0C12.45,54,12,53.55,12,53z M46,51c0-0.55,0.45-1,1-1l0,0c0.55,0,1,0.45,1,1l0,0c0,0.55-0.45,1-1,1l0,0
		C46.45,52,46,51.55,46,51z M12,49c0-0.55,0.45-1,1-1l0,0c0.55,0,1,0.45,1,1l0,0c0,0.55-0.45,1-1,1l0,0C12.45,50,12,49.55,12,49z
		 M50,47c0-0.55,0.45-1,1-1l0,0c0.55,0,1,0.45,1,1l0,0c0,0.55-0.45,1-1,1l0,0C50.45,48,50,47.55,50,47z M46,47c0-0.55,0.45-1,1-1
		l0,0c0.55,0,1,0.45,1,1l0,0c0,0.55-0.45,1-1,1l0,0C46.45,48,46,47.55,46,47z M10,47c0-0.55,0.45-1,1-1l0,0c0.55,0,1,0.45,1,1l0,0
		c0,0.55-0.45,1-1,1l0,0C10.45,48,10,47.55,10,47z M6,47c0-0.55,0.45-1,1-1l0,0c0.55,0,1,0.45,1,1l0,0c0,0.55-0.45,1-1,1l0,0
		C6.45,48,6,47.55,6,47z M52,45c0-0.55,0.45-1,1-1l0,0c0.55,0,1,0.45,1,1l0,0c0,0.55-0.45,1-1,1l0,0C52.45,46,52,45.55,52,45z M6,43
		c0-0.55,0.45-1,1-1l0,0c0.55,0,1,0.45,1,1l0,0c0,0.55-0.45,1-1,1l0,0C6.45,44,6,43.55,6,43z M52,41c0-0.55,0.45-1,1-1l0,0
		c0.55,0,1,0.45,1,1l0,0c0,0.55-0.45,1-1,1l0,0C52.45,42,52,41.55,52,41z M6,39c0-0.55,0.45-1,1-1l0,0c0.55,0,1,0.45,1,1l0,0
		c0,0.55-0.45,1-1,1l0,0C6.45,40,6,39.55,6,39z M52,37c0-0.55,0.45-1,1-1l0,0c0.55,0,1,0.45,1,1l0,0c0,0.55-0.45,1-1,1l0,0
		C52.45,38,52,37.55,52,37z M6,35c0-0.55,0.45-1,1-1l0,0c0.55,0,1,0.45,1,1l0,0c0,0.55-0.45,1-1,1l0,0C6.45,36,6,35.55,6,35z M52,33
		c0-0.55,0.45-1,1-1l0,0c0.55,0,1,0.45,1,1l0,0c0,0.55-0.45,1-1,1l0,0C52.45,34,52,33.55,52,33z M6,31c0-0.55,0.45-1,1-1l0,0
		c0.55,0,1,0.45,1,1l0,0c0,0.55-0.45,1-1,1l0,0C6.45,32,6,31.55,6,31z M52,29c0-0.55,0.45-1,1-1l0,0c0.55,0,1,0.45,1,1l0,0
		c0,0.55-0.45,1-1,1l0,0C52.45,30,52,29.55,52,29z M6,27c0-0.55,0.45-1,1-1l0,0c0.55,0,1,0.45,1,1l0,0c0,0.55-0.45,1-1,1l0,0
		C6.45,28,6,27.55,6,27z M52,25c0-0.55,0.45-1,1-1l0,0c0.55,0,1,0.45,1,1l0,0c0,0.55-0.45,1-1,1l0,0C52.45,26,52,25.55,52,25z M6,23
		c0-0.55,0.45-1,1-1l0,0c0.55,0,1,0.45,1,1l0,0c0,0.55-0.45,1-1,1l0,0C6.45,24,6,23.55,6,23z M52,21c0-0.55,0.45-1,1-1l0,0
		c0.55,0,1,0.45,1,1l0,0c0,0.55-0.45,1-1,1l0,0C52.45,22,52,21.55,52,21z M6,19c0-0.55,0.45-1,1-1l0,0c0.55,0,1,0.45,1,1l0,0
		c0,0.55-0.45,1-1,1l0,0C6.45,20,6,19.55,6,19z M52,17c0-0.55,0.45-1,1-1l0,0c0.55,0,1,0.45,1,1l0,0c0,0.55-0.45,1-1,1l0,0
		C52.45,18,52,17.55,52,17z M6,15c0-0.55,0.45-1,1-1l0,0c0.55,0,1,0.45,1,1l0,0c0,0.55-0.45,1-1,1l0,0C6.45,16,6,15.55,6,15z M52,13
		c0-0.55,0.45-1,1-1l0,0c0.55,0,1,0.45,1,1l0,0c0,0.55-0.45,1-1,1l0,0C52.45,14,52,13.55,52,13z M48,13c0-0.55,0.45-1,1-1l0,0
		c0.55,0,1,0.45,1,1l0,0c0,0.55-0.45,1-1,1l0,0C48.45,14,48,13.55,48,13z M12,13c0-0.55,0.45-1,1-1l0,0c0.55,0,1,0.45,1,1l0,0
		c0,0.55-0.45,1-1,1l0,0C12.45,14,12,13.55,12,13z M8,13c0-0.55,0.45-1,1-1l0,0c0.55,0,1,0.45,1,1l0,0c0,0.55-0.45,1-1,1l0,0
		C8.45,14,8,13.55,8,13z M46,11c0-0.55,0.45-1,1-1l0,0c0.55,0,1,0.45,1,1l0,0c0,0.55-0.45,1-1,1l0,0C46.45,12,46,11.55,46,11z M12,9
		c0-0.55,0.45-1,1-1l0,0c0.55,0,1,0.45,1,1l0,0c0,0.55-0.45,1-1,1l0,0C12.45,10,12,9.55,12,9z M46,7c0-0.55,0.45-1,1-1l0,0
		c0.55,0,1,0.45,1,1l0,0c0,0.55-0.45,1-1,1l0,0C46.45,8,46,7.55,46,7z M42,7c0-0.55,0.45-1,1-1l0,0c0.55,0,1,0.45,1,1l0,0
		c0,0.55-0.45,1-1,1l0,0C42.45,8,42,7.55,42,7z M38,7c0-0.55,0.45-1,1-1l0,0c0.55,0,1,0.45,1,1l0,0c0,0.55-0.45,1-1,1l0,0
		C38.45,8,38,7.55,38,7z M34,7c0-0.55,0.45-1,1-1l0,0c0.55,0,1,0.45,1,1l0,0c0,0.55-0.45,1-1,1l0,0C34.45,8,34,7.55,34,7z M30,7
		c0-0.55,0.45-1,1-1l0,0c0.55,0,1,0.45,1,1l0,0c0,0.55-0.45,1-1,1l0,0C30.45,8,30,7.55,30,7z M26,7c0-0.55,0.45-1,1-1l0,0
		c0.55,0,1,0.45,1,1l0,0c0,0.55-0.45,1-1,1l0,0C26.45,8,26,7.55,26,7z M22,7c0-0.55,0.45-1,1-1l0,0c0.55,0,1,0.45,1,1l0,0
		c0,0.55-0.45,1-1,1l0,0C22.45,8,22,7.55,22,7z M18,7c0-0.55,0.45-1,1-1l0,0c0.55,0,1,0.45,1,1l0,0c0,0.55-0.45,1-1,1l0,0
		C18.45,8,18,7.55,18,7z M14,7c0-0.55,0.45-1,1-1l0,0c0.55,0,1,0.45,1,1l0,0c0,0.55-0.45,1-1,1l0,0C14.45,8,14,7.55,14,7z"/>
	<g>
		<rect x="47" y="1" style="fill:#434C6D;" width="12" height="12"/>
		<path style="fill:#434C6D;" d="M60,14H46V0h14V14z M48,12h10V2H48V12z"/>
	</g>
	<g>
		<rect x="47" y="47" style="fill:#26B99A;" width="12" height="12"/>
		<path style="fill:#26B99A;" d="M60,60H46V46h14V60z M48,58h10V48H48V58z"/>
	</g>
	<g>
		<rect x="1" y="1" style="fill:#434C6D;" width="12" height="12"/>
		<path style="fill:#434C6D;" d="M14,14H0V0h14V14z M2,12h10V2H2V12z"/>
	</g>
	<g>
		<rect x="1" y="47" style="fill:#434C6D;" width="12" height="12"/>
		<path style="fill:#434C6D;" d="M14,60H0V46h14V60z M2,58h10V48H2V58z"/>
	</g>
</g>
<g>
</g>
<g>
</g>
<g>
</g>
<g>
</g>
<g>
</g>
<g>
</g>
<g>
</g>
<g>
</g>
<g>
</g>
<g>
</g>
<g>
</g>
<g>
</g>
<g>
</g>
<g>
</g>
<g>
</g>
</svg>
